<?xml version="1.0" standalone="no"?>
<!DOCTYPE svg PUBLIC "-//W3C//DTD SVG 20010904//EN"
 "http://www.w3.org/TR/2001/REC-SVG-20010904/DTD/svg10.dtd">
<svg version="1.0" xmlns="http://www.w3.org/2000/svg"
 width="523.000000pt" height="523.000000pt" viewBox="0 0 523.000000 523.000000"
 preserveAspectRatio="xMidYMid meet">

<g transform="translate(0.000000,523.000000) scale(0.100000,-0.100000)"
fill="#000000" stroke="none">
<path d="M2517 5053 c-238 -242 -437 -580 -569 -963 -271 -792 -320 -1902
-138 -3190 16 -113 34 -297 40 -410 12 -225 18 -256 56 -291 23 -21 37 -24
152 -30 70 -4 146 -8 170 -8 30 -1 42 -5 42 -16 0 -9 9 -15 23 -15 12 0 69
-11 127 -25 141 -33 259 -33 400 0 58 14 115 25 128 25 13 0 22 6 22 15 0 11
12 15 43 16 23 0 99 4 169 8 190 10 191 10 208 316 6 110 20 265 31 345 72
526 90 724 111 1230 31 764 -55 1493 -242 2034 -133 384 -329 716 -567 959
-58 59 -82 77 -103 77 -21 0 -45 -18 -103 -77z m283 -1493 c347 -43 529 -197
608 -515 39 -152 46 -256 46 -615 0 -315 -2 -349 -18 -385 l-19 -40 -8 40 c-4
22 -8 119 -9 215 -2 484 -40 660 -170 790 -31 30 -78 67 -105 82 -237 127
-773 127 -1010 0 -27 -15 -74 -52 -105 -83 -131 -132 -168 -305 -170 -789 -1
-96 -5 -193 -9 -215 l-8 -40 -19 40 c-16 36 -18 71 -18 385 0 359 7 462 46
614 91 366 317 520 773 525 61 0 149 -4 195 -9z m-467 -831 c27 -7 37 -15 37
-30 0 -15 5 -19 19 -14 35 11 39 -13 32 -170 -10 -212 -34 -251 -161 -262
-137 -13 -209 25 -230 120 -6 29 -10 110 -8 182 3 124 4 130 23 128 13 -1 24
6 30 20 6 12 21 24 35 28 40 11 181 10 223 -2z m792 2 c17 -3 34 -15 40 -28 6
-14 17 -21 30 -20 19 2 20 -3 20 -158 0 -175 -8 -204 -66 -247 -55 -41 -216
-36 -270 9 -45 38 -51 62 -59 228 -8 157 -4 181 31 170 14 -5 19 -1 19 14 0
14 10 23 33 30 36 10 176 12 222 2z m-615 -1347 c6 -15 9 -113 8 -233 l-3
-206 -248 -3 c-282 -3 -269 -7 -248 82 6 28 16 116 21 196 6 80 12 155 15 168
5 22 5 22 225 22 l220 0 10 -26z m675 4 c3 -13 10 -88 15 -168 5 -80 14 -168
21 -196 21 -89 34 -85 -248 -82 l-248 3 0 215 c0 118 3 223 7 233 7 15 27 17
227 17 220 0 221 0 226 -22z"/>
<path d="M2140 2395 c-21 -26 0 -35 80 -35 80 0 101 9 80 35 -9 11 -33 15 -80
15 -47 0 -71 -4 -80 -15z"/>
<path d="M2940 2395 c-21 -26 0 -35 80 -35 80 0 101 9 80 35 -9 11 -33 15 -80
15 -47 0 -71 -4 -80 -15z"/>
</g>
</svg>
