<?xml version="1.0" standalone="no"?>
<!DOCTYPE svg PUBLIC "-//W3C//DTD SVG 20010904//EN"
 "http://www.w3.org/TR/2001/REC-SVG-20010904/DTD/svg10.dtd">
<svg version="1.0" xmlns="http://www.w3.org/2000/svg"
 width="32.000000pt" height="32.000000pt" viewBox="0 0 32.000000 32.000000"
 preserveAspectRatio="xMidYMid meet">

<g transform="translate(0.000000,32.000000) scale(0.100000,-0.100000)"
fill="#000000" stroke="none">
<path d="M136 285 c-9 -14 -19 -39 -23 -55 -6 -30 -5 -31 21 -19 20 10 32 10
52 0 26 -12 27 -11 20 21 -7 35 -32 78 -45 78 -5 0 -16 -11 -25 -25z"/>
<path d="M126 187 c-14 -11 -18 -27 -17 -87 0 -40 5 -78 10 -83 13 -13 69 -13
82 0 5 5 11 43 11 83 1 60 -1 75 -17 86 -24 18 -46 18 -69 1z m21 -43 c-9 -9
-28 6 -21 18 4 6 10 6 17 -1 6 -6 8 -13 4 -17z m53 5 c0 -5 -7 -9 -15 -9 -15
0 -20 12 -9 23 8 8 24 -1 24 -14z m-50 -74 c0 -8 -7 -15 -15 -15 -16 0 -20 12
-8 23 11 12 23 8 23 -8z m48 -3 c2 -7 -3 -12 -12 -12 -9 0 -16 7 -16 16 0 17
22 14 28 -4z"/>
</g>
</svg>
